<svg width="653" height="190" viewBox="0 0 653 190" fill="none" xmlns="http://www.w3.org/2000/svg">
<path d="M581.334 147.979C573.338 151.823 565.802 154.13 554.268 154.13C528.586 154.13 512.285 137.675 512.285 112.916C512.285 90.9247 528.125 71.7017 552.115 71.7017C577.49 71.7017 589.485 90.9247 589.485 112.762C589.485 114.454 589.177 117.837 589.024 119.375H534.738C537.198 130.294 546.272 135.83 558.421 135.83C568.724 135.83 578.413 132.6 587.332 127.987L587.793 128.294L581.334 147.979ZM551.654 88.4642C542.427 88.4642 535.814 95.5383 534.584 106.149H567.801C566.879 95.3845 560.881 88.4642 551.654 88.4642Z" fill="#F51D00"/>
<path d="M428.805 146.749C422.039 150.901 413.119 154.284 402.508 154.284C379.594 154.284 362.37 138.598 362.37 113.07C362.37 89.8483 379.286 72.0093 404.353 72.0093C415.58 72.0093 423.73 75.3925 430.189 80.0061V103.381H429.882C422.807 97.3837 414.657 92.7702 405.891 92.7702C393.588 92.7702 385.438 101.536 385.438 113.224C385.438 125.219 393.588 133.523 405.276 133.523C414.349 133.523 424.499 129.063 431.266 123.835L431.573 123.988L428.805 146.749Z" fill="#F51D00"/>
<path d="M272.355 113.223C272.355 91.6937 288.964 71.7017 314.954 71.7017C341.712 71.7017 357.398 91.5399 357.398 112.916C357.398 134.6 340.79 154.592 314.8 154.592C288.195 154.592 272.355 134.6 272.355 113.223ZM314.954 91.5399C303.112 91.5399 294.962 101.075 294.962 113.223C294.962 125.526 303.42 134.753 314.8 134.753C326.641 134.753 334.792 125.065 334.792 112.916C334.792 100.613 326.334 91.5399 314.954 91.5399Z" fill="#F51D00"/>
<path d="M231.416 118.299H220.344V152.439H195.431V44.79H231.109C256.944 44.79 274.476 56.7852 274.476 80.7756C274.476 104.612 256.637 118.299 231.416 118.299ZM230.494 65.3972H219.882V98.4609H230.186C242.489 98.4609 250.024 92.0019 250.024 81.237C250.024 71.5486 242.95 65.3972 230.494 65.3972Z" fill="#F51D00"/>
<path d="M462.295 105.227H465.678L490.284 73.855H516.889V74.1626L485.978 111.686L519.042 152.131V152.439H491.053L465.833 120.144H462.295V152.439H438.92V59.7983L462.295 36.4233V105.227Z" fill="#F51D00"/>
<path d="M624.543 44.3135L624.561 44.3008V65.0547H651.781V83.2012H624.561V122.297C624.561 130.601 628.867 134.293 636.402 134.293C641.938 134.293 646.706 131.986 651.934 128.142L652.242 128.295L648.705 148.595C643.322 151.978 636.402 154.131 628.406 154.131C611.797 154.131 601.647 144.75 601.647 124.143V83.2012H589.652V68.2969H589.654L624.543 36.1104V44.3135Z" fill="#F51D00"/>
<path d="M83.8398 0C130.143 6.59731e-05 167.68 37.5373 167.681 83.8408C167.681 130.145 130.144 167.682 83.8398 167.682C66.112 167.682 49.6691 162.179 36.126 152.789L0 189.236V83.8408C0.000180348 37.5374 37.5364 0.000222653 83.8398 0ZM83.8389 36.1309C57.6384 36.1312 36.3705 57.2506 36.1309 83.3945H36.1299V83.6865C36.1297 83.7378 36.1289 83.7895 36.1289 83.8408C36.1289 83.8921 36.1297 83.9439 36.1299 83.9951V152.783L62.5469 126.544C68.9566 129.746 76.1866 131.551 83.8389 131.551C110.188 131.551 131.55 110.19 131.55 83.8408C131.55 57.4912 110.188 36.1309 83.8389 36.1309Z" fill="#F51D00"/>
</svg>
