<svg width="168" height="32" viewBox="0 0 168 32" fill="none" xmlns="http://www.w3.org/2000/svg">
<path d="M96.2591 25.0235C94.9349 25.6737 93.6872 26.0637 91.7774 26.0637C87.5249 26.0637 84.8257 23.2812 84.8257 19.0943C84.8257 15.3755 87.4485 12.1249 91.4209 12.1249C95.6225 12.1249 97.6087 15.3755 97.6087 19.0683C97.6087 19.3544 97.5577 19.9265 97.5323 20.1865H88.5434C88.9509 22.0329 90.4532 22.9691 92.4649 22.9691C94.171 22.9691 95.7752 22.423 97.2522 21.6428L97.3285 21.6948L96.2591 25.0235ZM91.3445 14.9595C89.8166 14.9595 88.7217 16.1557 88.518 17.9501H94.0182C93.8654 16.1297 92.8723 14.9595 91.3445 14.9595Z" fill="#F51D00"/>
<path d="M71.2236 24.8154C70.1032 25.5176 68.6263 26.0897 66.8693 26.0897C63.0751 26.0897 60.2231 23.4372 60.2231 19.1203C60.2231 15.1935 63.0242 12.1768 67.1748 12.1768C69.0337 12.1768 70.3833 12.749 71.4528 13.5291V17.4819H71.4019C70.2305 16.4677 68.8809 15.6876 67.4295 15.6876C65.3924 15.6876 64.0428 17.1699 64.0428 19.1463C64.0428 21.1747 65.3924 22.579 67.3276 22.579C68.83 22.579 70.5106 21.8248 71.6311 20.9406L71.682 20.9666L71.2236 24.8154Z" fill="#F51D00"/>
<path d="M45.4287 19.1463C45.4287 15.5056 48.1788 12.1249 52.4823 12.1249C56.913 12.1249 59.5103 15.4796 59.5103 19.0943C59.5103 22.7611 56.7602 26.1418 52.4568 26.1418C48.0515 26.1418 45.4287 22.7611 45.4287 19.1463ZM52.4823 15.4796C50.5215 15.4796 49.1719 17.0919 49.1719 19.1463C49.1719 21.2267 50.5725 22.7871 52.4568 22.7871C54.4175 22.7871 55.7671 21.1487 55.7671 19.0943C55.7671 17.0139 54.3666 15.4796 52.4823 15.4796Z" fill="#F51D00"/>
<path d="M38.3185 20.0047H36.485V25.7779H32.3599V7.57413H38.2675C42.5455 7.57413 45.4484 9.60254 45.4484 13.6594C45.4484 17.6902 42.4946 20.0047 38.3185 20.0047ZM38.1657 11.0588H36.4087V16.65H38.1147C40.1519 16.65 41.3996 15.5578 41.3996 13.7374C41.3996 12.0991 40.2283 11.0588 38.1657 11.0588Z" fill="#F51D00"/>
<path d="M81.31 25.7778L77.1339 20.3167H76.5482V25.7778H72.6777V10.1171L76.5482 6.14407V17.7941H77.1084L81.1827 12.4891H85.588V12.5411L80.4697 18.8864L85.9445 25.7258V25.7778H81.31Z" fill="#F51D00"/>
<path d="M107.414 25.4824C106.523 26.0545 105.377 26.4186 104.053 26.4186C101.303 26.4186 99.6222 24.8322 99.6222 21.3475V14.4242H97.636L97.636 11.9038H99.6222V10.1781L103.395 7.83347L103.416 11.3555H107.923V14.4242H103.416V21.0355C103.416 22.4398 104.129 23.0639 105.377 23.0639C106.294 23.0639 107.083 22.6738 107.949 22.0237L108 22.0497L107.414 25.4824Z" fill="#F51D00"/>
<path d="M103.389 6.49133L97.6392 11.9085H103.389V6.49133Z" fill="#F51D00"/>
<path d="M13.8828 0C21.5498 0.000158958 27.7646 6.34776 27.7646 14.1777C27.7646 22.0076 21.5497 28.3553 13.8828 28.3555C10.9471 28.3555 8.22504 27.4231 5.98242 25.835L10.3574 21.3965C11.4189 21.9381 12.6156 22.2451 13.8828 22.2451C18.2455 22.2449 21.782 18.6332 21.7822 14.1777C21.7821 9.72223 18.2456 6.10959 13.8828 6.10938C9.54462 6.10938 6.02436 9.68081 5.98438 14.1016H5.98242V25.835L0 32V14.1777C0 6.34766 6.21571 0 13.8828 0Z" fill="#F51D00"/>
<path d="M162.239 26.4664C161.128 26.4664 160.181 26.3276 159.397 26.0499C158.63 25.7723 158.033 25.4293 157.609 25.021C157.2 24.6126 156.955 24.2288 156.874 23.8695L158.172 21.7871L158.417 21.8116C158.646 22.9385 159.087 23.845 159.74 24.531C160.41 25.2006 161.243 25.5354 162.239 25.5354C162.925 25.5354 163.464 25.3558 163.856 24.9965C164.264 24.6208 164.469 24.1063 164.469 23.453C164.469 22.424 163.823 21.6972 162.533 21.2726L160.5 20.6356C160.091 20.5049 159.634 20.3253 159.128 20.0966C158.621 19.8516 158.18 19.4841 157.805 18.9941C157.445 18.5042 157.266 17.8345 157.266 16.9852C157.266 16.2666 157.462 15.6296 157.854 15.0743C158.246 14.5026 158.785 14.0616 159.471 13.7513C160.173 13.4247 160.973 13.2613 161.872 13.2613C162.966 13.2613 163.938 13.49 164.787 13.9473C165.653 14.3883 166.273 14.9763 166.649 15.7112L165.424 17.4017L165.179 17.3772C165.032 16.3972 164.665 15.6214 164.077 15.0498C163.505 14.4618 162.778 14.1678 161.896 14.1678C161.259 14.1678 160.745 14.3475 160.353 14.7068C159.961 15.0498 159.765 15.4663 159.765 15.9562C159.765 16.8545 160.402 17.516 161.676 17.9407L163.758 18.5777C164.33 18.7573 164.877 18.986 165.399 19.2636C165.938 19.525 166.379 19.9006 166.722 20.3906C167.082 20.8806 167.261 21.5584 167.261 22.424C167.261 23.1917 167.049 23.8858 166.624 24.5065C166.216 25.1108 165.636 25.5926 164.885 25.9519C164.134 26.2949 163.252 26.4664 162.239 26.4664Z" fill="#F51D00"/>
<path d="M148.072 26.4664C146.847 26.4664 145.859 26.1479 145.107 25.5109C144.372 24.8576 144.005 24.0328 144.005 23.0365C144.005 21.9585 144.389 21.0929 145.156 20.4396C145.94 19.7699 147.051 19.2881 148.488 18.9941L151.943 18.3327V17.2547C151.943 16.4217 151.722 15.7847 151.281 15.3438C150.84 14.9028 150.277 14.6823 149.591 14.6823C148.856 14.6823 148.243 14.9436 147.753 15.4663C147.28 15.9726 147.051 16.732 147.067 17.7447L144.201 17.1567C144.315 16.4381 144.601 15.7847 145.058 15.1968C145.516 14.6088 146.128 14.1433 146.896 13.8003C147.68 13.441 148.594 13.2613 149.64 13.2613C151.24 13.2613 152.514 13.6696 153.462 14.4863C154.409 15.3029 154.883 16.4626 154.883 17.9652V24.678L155.74 26.0009V26.2214H151.943V24.237C151.551 24.9393 151.02 25.4864 150.35 25.8784C149.697 26.2704 148.937 26.4664 148.072 26.4664ZM151.943 22.277V19.6311L149.542 20.1456C148.676 20.3579 148.039 20.6764 147.631 21.1011C147.223 21.5094 147.018 22.0402 147.018 22.6935C147.018 23.2325 147.198 23.6817 147.557 24.041C147.933 24.4003 148.423 24.58 149.027 24.58C149.779 24.58 150.399 24.3595 150.889 23.9185C151.396 23.4612 151.747 22.914 151.943 22.277Z" fill="#F51D00"/>
<path d="M141.729 24.8249L142.586 26.0009V26.2214H137.907V26.0009L138.764 24.8249V10.3704L137.907 9.07194V8.87595L141.729 8.18997V24.8249Z" fill="#F51D00"/>
<path d="M134.463 26.4664C133.402 26.4664 132.503 26.1642 131.768 25.5599C131.05 24.9556 130.69 23.9838 130.69 22.6445V15.1967H128.583V13.8003C129.629 13.686 130.413 13.392 130.935 12.9183C131.474 12.4283 131.85 11.5872 132.062 10.3949H133.63V13.5063L136.619 13.3103L136.693 15.1967H133.63V22.718C133.63 23.3877 133.802 23.8695 134.145 24.1635C134.488 24.4575 134.896 24.6044 135.37 24.6044C135.598 24.6044 135.819 24.5799 136.031 24.5309C136.26 24.4656 136.472 24.3676 136.668 24.237L136.766 25.6089C136.554 25.8376 136.244 26.0417 135.835 26.2214C135.427 26.3847 134.97 26.4664 134.463 26.4664Z" fill="#F51D00"/>
<path d="M111.858 26.2214V26.0254L113.156 24.7515L119.526 8.55746H121.706L128.15 24.678L129.497 26.0254V26.2214H123.96L123.936 26.0254L124.744 24.7515L123.47 21.4441H116.635L115.385 24.776L116.145 26.0254L116.12 26.2214H111.858ZM117.296 19.6311H122.76L119.967 12.4528L117.296 19.6311Z" fill="#F51D00"/>
</svg>
